<?xml version="1.0" encoding="iso-8859-1"?>
<!-- Generator: Adobe Illustrator 16.0.0, SVG Export Plug-In . SVG Version: 6.00 Build 0)  -->
<!DOCTYPE svg PUBLIC "-//W3C//DTD SVG 1.1//EN" "http://www.w3.org/Graphics/SVG/1.1/DTD/svg11.dtd">
<svg version="1.1" id="Layer_1" xmlns="http://www.w3.org/2000/svg" xmlns:xlink="http://www.w3.org/1999/xlink" x="0px" y="0px"
	 width="102.66px" height="40px" viewBox="0 0 102.66 40" style="enable-background:new 0 0 102.66 40;" xml:space="preserve">
<g>
	<g>
		<g>
			<path style="fill-rule:evenodd;clip-rule:evenodd;fill:#019FDA;" d="M37.918,11.104c0.398,0.765,0.683,1.469,0.937,2.184
				c0.279,0.785,0.531,1.575,0.602,2.413c0.114,1.377-0.391,2.521-1.32,3.496c-1.13,1.188-2.559,1.893-4.069,2.448
				c-1.945,0.715-3.967,1.108-6.021,1.356c-2.062,0.249-4.133,0.347-6.211,0.317c-4.314-0.062-8.594-0.419-12.77-1.593
				c-2.101-0.589-4.123-1.369-5.948-2.591c-0.796-0.535-1.519-1.15-2.105-1.921c-0.473-0.619-0.656-1.266-0.429-2.051
				c0.353-1.225,0.743-2.435,1.279-3.596c0.021-0.049,0.052-0.092,0.129-0.226c-0.088,0.548-0.208,0.992-0.174,1.455
				c0.104,1.367,0.831,2.39,1.819,3.253c1.474,1.289,3.23,2.048,5.079,2.61c2.08,0.634,4.213,0.943,6.384,1.036
				c2.529,0.111,5.029-0.15,7.521-0.553c3.004-0.486,5.952-1.195,8.802-2.279c1.632-0.621,3.206-1.354,4.593-2.441
				c0.316-0.248,0.607-0.522,0.875-0.818C37.507,12.925,37.925,12.152,37.918,11.104z"/>
			<path style="fill-rule:evenodd;clip-rule:evenodd;fill:#019FDA;" d="M39.956,18.93c0.112,1.82,0.017,3.633-0.468,5.401
				c-0.392,1.427-1.355,2.45-2.498,3.316c-1.727,1.309-3.709,2.063-5.781,2.608c-2.555,0.671-5.162,0.968-7.793,1.086
				c-2.12,0.094-4.238,0.102-6.355-0.082c-4.532-0.393-8.881-1.414-12.833-3.785c-0.869-0.52-1.67-1.129-2.432-1.797
				c-0.992-0.867-1.573-1.923-1.654-3.255C0.093,21.626,0.015,20.832,0,20.035c0.067-0.03,0.086,0.021,0.096,0.055
				c0.562,1.773,1.724,3.108,3.15,4.23c2.11,1.662,4.545,2.602,7.151,3.143c3.081,0.639,6.188,0.668,9.307,0.346
				c4.865-0.504,9.548-1.709,14.004-3.743c1.762-0.806,3.448-1.741,4.877-3.074C39.197,20.418,39.718,19.773,39.956,18.93z"/>
			<path style="fill-rule:evenodd;clip-rule:evenodd;fill:#019FDA;" d="M7.011,4.896C6.606,5.514,6.274,6.153,6.306,6.929
				c0.055,1.389,0.772,2.377,1.882,3.115c1.198,0.796,2.56,1.147,3.96,1.358c2.452,0.37,4.91,0.289,7.369,0.077
				c2.605-0.225,5.16-0.702,7.643-1.54c1.57-0.53,3.082-1.185,4.441-2.154c0.545-0.388,1.049-0.822,1.419-1.39
				c0.265-0.407,0.396-0.84,0.228-1.322L33.24,5.079c0.117-0.039,0.153,0.069,0.211,0.122c0.793,0.731,1.518,1.524,2.221,2.343
				c1.386,1.611,0.932,3.302-0.253,4.527c-0.938,0.972-2.095,1.588-3.335,2.07c-1.979,0.771-4.051,1.133-6.154,1.323
				c-2.082,0.188-4.168,0.198-6.25,0.059c-4.033-0.271-7.998-0.896-11.761-2.456c-1.232-0.513-2.406-1.139-3.354-2.114
				C4.237,10.615,3.973,10.238,3.791,9.8C3.535,9.18,3.562,8.605,3.978,8.046c0.659-0.883,1.378-1.711,2.177-2.466
				C6.419,5.33,6.659,5.05,6.979,4.862C6.99,4.874,7,4.885,7.011,4.896z"/>
			<path style="fill-rule:evenodd;clip-rule:evenodd;fill:#019FDA;" d="M19.002,8.002c-2.38-0.035-4.876-0.203-7.304-0.924
				c-0.874-0.259-1.72-0.586-2.472-1.116C8.916,5.743,8.633,5.493,8.436,5.165c-0.332-0.55-0.282-1.02,0.16-1.482
				c0.301-0.317,0.665-0.553,1.035-0.777c3.538-2.145,7.382-3.091,11.501-2.875c3.373,0.176,6.508,1.168,9.38,2.958
				c0.169,0.104,0.336,0.217,0.491,0.343c0.518,0.425,0.586,0.902,0.215,1.46c-0.277,0.418-0.664,0.712-1.084,0.966
				c-1.269,0.772-2.668,1.189-4.098,1.516C23.766,7.794,21.458,7.983,19.002,8.002z"/>
			<path style="fill:#FFFFFF;" d="M81.549,21.936c0.4-0.698,0.789-1.354,1.152-2.025c0.203-0.374,0.475-0.547,0.908-0.527
				c0.576,0.027,1.156,0.004,1.734,0.008c0.453,0.004,0.58,0.218,0.35,0.615c-0.688,1.189-1.381,2.376-2.078,3.559
				c-0.098,0.166-0.104,0.268,0.037,0.418c1.055,1.127,2.096,2.263,3.143,3.395c0.125,0.137,0.248,0.269,0.16,0.469
				c-0.084,0.195-0.27,0.162-0.432,0.162c-0.811,0.002-1.621-0.006-2.434,0.004c-0.314,0.006-0.549-0.104-0.756-0.338
				c-0.432-0.492-0.885-0.965-1.312-1.459c-0.148-0.172-0.215-0.176-0.361,0.01c-0.811,1.022-1.834,1.733-3.129,1.996
				c-1.738,0.352-3.412,0.201-4.895-0.859c-1.385-0.99-1.883-2.409-1.82-4.065c0.059-1.517,0.748-2.687,1.955-3.57
				c0.287-0.209,0.578-0.42,0.893-0.579c0.258-0.128,0.205-0.215,0.061-0.396c-0.596-0.75-1.016-1.581-1.115-2.553
				c-0.24-2.39,1.398-4.351,3.791-4.523c0.883-0.062,1.752,0,2.582,0.34c2.453,0.997,3.105,4.214,1.244,6.145
				c-0.498,0.517-1.08,0.919-1.701,1.267c-0.156,0.088-0.184,0.131-0.047,0.276C80.166,20.428,80.838,21.166,81.549,21.936z
				 M74.668,23.198c-0.029,1.303,0.65,2.239,1.684,2.532c1.334,0.377,2.648-0.173,3.488-1.438c0.098-0.144,0.004-0.193-0.068-0.271
				c-0.883-0.95-1.766-1.898-2.646-2.847c-0.453-0.485-0.451-0.482-1.016-0.112C75.248,21.629,74.658,22.358,74.668,23.198z
				 M76.359,15.763c0.029,0.778,0.576,1.381,1.111,1.987c0.059,0.066,0.109,0.048,0.172,0.01c0.531-0.32,1.078-0.619,1.498-1.088
				c0.477-0.534,0.543-1.288,0.174-1.874c-0.352-0.563-1.125-0.798-1.893-0.575C76.781,14.408,76.365,14.971,76.359,15.763z"/>
			<path style="fill:#FFFFFF;" d="M54.205,12.006c0.387,0,0.775-0.002,1.164,0c0.561,0,0.674,0.079,0.859,0.59
				c1.557,4.342,3.115,8.682,4.676,13.023c0.209,0.584,0.424,1.164,0.631,1.748c0.162,0.461,0.031,0.641-0.455,0.642
				c-0.613,0.001-1.223,0.001-1.834,0c-0.451-0.001-0.578-0.091-0.727-0.523c-0.354-1.013-0.711-2.023-1.051-3.042
				c-0.066-0.196-0.152-0.25-0.352-0.248c-1.963,0.008-3.928,0.008-5.895-0.002c-0.211,0-0.307,0.055-0.375,0.259
				c-0.342,1.017-0.697,2.028-1.053,3.042c-0.153,0.439-0.264,0.514-0.727,0.515c-0.556,0.001-1.111,0.001-1.667,0
				c-0.534-0.001-0.664-0.179-0.484-0.675c1.341-3.726,2.681-7.452,4.022-11.178c0.432-1.198,0.861-2.394,1.294-3.592
				c0.177-0.489,0.277-0.558,0.804-0.559C53.426,12.004,53.816,12.006,54.205,12.006z M54.193,15.071
				c-0.051,0.069-0.074,0.091-0.084,0.119c-0.723,2.052-1.441,4.107-2.169,6.158c-0.093,0.26,0.059,0.219,0.202,0.219
				c1.352,0,2.708-0.003,4.059,0.001c0.184,0.002,0.258-0.009,0.18-0.229C55.65,19.266,54.93,17.189,54.193,15.071z"/>
			<path style="fill-rule:evenodd;clip-rule:evenodd;fill:#019FDA;" d="M38.564,27.318c0.047,0.078,0.009,0.15-0.021,0.221
				c-0.754,1.803-1.673,3.504-3.126,4.857c-1.337,1.244-2.913,2.09-4.6,2.744c-2.376,0.92-4.844,1.434-7.382,1.594
				c-4.141,0.262-8.222-0.091-12.21-1.271c-2.337-0.693-4.522-1.697-6.421-3.26c-0.967-0.793-2.006-1.896-2.79-3.436
				c0.078-0.07,0.12-0.004,0.158,0.047c1.399,1.82,3.294,2.938,5.373,3.791c2.58,1.057,5.276,1.617,8.049,1.795
				c4.963,0.318,9.834-0.23,14.581-1.746c2.164-0.691,4.219-1.618,6.058-2.982c0.898-0.664,1.683-1.443,2.338-2.349L38.564,27.318z"
				/>
			<path style="fill:#FFFFFF;" d="M64.432,21.234c0-2.078-0.004-4.154,0.006-6.23c0.002-0.256-0.057-0.332-0.324-0.33
				c-1.299,0.017-2.598,0.009-3.898,0.008c-0.484,0-0.59-0.105-0.592-0.579c-0.002-0.466,0-0.933,0-1.399
				c0-0.608,0.088-0.697,0.686-0.697c1.408-0.001,2.818,0,4.229,0c2.322,0,4.643-0.001,6.965,0c0.557,0,0.66,0.1,0.66,0.654
				c0,0.499,0.002,0.998,0,1.498c-0.002,0.388-0.131,0.521-0.516,0.522c-1.301,0.003-2.6,0.012-3.9-0.008
				c-0.311-0.004-0.402,0.06-0.402,0.391c0.014,4.099,0.01,8.196,0.008,12.294c0,0.557-0.096,0.651-0.656,0.652
				c-0.566,0-1.133,0-1.699-0.002c-0.447,0-0.564-0.121-0.564-0.576C64.432,25.365,64.432,23.3,64.432,21.234z"/>
			<path style="fill:#FFFFFF;" d="M92.477,21.226c0,2.065,0,4.13,0,6.196c-0.002,0.479-0.111,0.586-0.586,0.587
				c-0.578,0.001-1.156,0.001-1.732,0c-0.49-0.001-0.604-0.113-0.604-0.608c0-3.299,0-6.596,0-9.896c0-0.831-0.01-1.666,0.006-2.499
				c0.004-0.25-0.049-0.334-0.32-0.332c-1.301,0.018-2.6,0.009-3.898,0.008c-0.479,0-0.594-0.114-0.596-0.58
				c-0.004-0.5-0.004-1,0-1.499c0.002-0.47,0.123-0.596,0.586-0.597c1.246-0.002,2.488,0,3.732,0c2.521,0,5.043-0.001,7.562,0
				c0.553,0,0.666,0.108,0.668,0.654c0.002,0.488,0.006,0.978,0,1.466c-0.004,0.43-0.131,0.556-0.559,0.556
				c-1.277,0.001-2.555,0.011-3.83-0.008c-0.332-0.005-0.443,0.059-0.439,0.421C92.486,17.139,92.477,19.183,92.477,21.226z"/>
			<path style="fill-rule:evenodd;clip-rule:evenodd;fill:#019FDA;" d="M7.93,35.852c1.158,0.561,2.34,1.058,3.58,1.41
				c2.144,0.608,4.333,0.916,6.556,1.03c4.008,0.204,7.928-0.21,11.707-1.628c0.957-0.359,1.882-0.781,2.768-1.293
				c0.081-0.048,0.157-0.123,0.297-0.1c-0.027,0.156-0.162,0.205-0.252,0.278c-2.744,2.206-5.844,3.63-9.326,4.181
				c-4.99,0.79-9.634-0.158-13.926-2.818c-0.5-0.31-0.989-0.638-1.443-1.013C7.904,35.883,7.918,35.868,7.93,35.852z"/>
			<path style="fill-rule:evenodd;clip-rule:evenodd;fill:#019FDA;" d="M7.89,35.899c-0.039-0.03-0.099-0.039-0.098-0.107
				l-0.006,0.005c0.064-0.021,0.112-0.002,0.144,0.055C7.918,35.868,7.904,35.883,7.89,35.899z"/>
			<path style="fill-rule:evenodd;clip-rule:evenodd;fill:#019FDA;" d="M38.569,27.323c0.011-0.005,0.021-0.009,0.029-0.015
				c-0.011,0.004-0.022,0.007-0.034,0.01L38.569,27.323z"/>
			<path style="fill-rule:evenodd;clip-rule:evenodd;fill:#019FDA;" d="M33.248,5.073c-0.013-0.01-0.026-0.02-0.038-0.03
				c0.035-0.01,0.052-0.004,0.03,0.036L33.248,5.073z"/>
			<path style="fill-rule:evenodd;clip-rule:evenodd;fill:#019FDA;" d="M6.979,4.862C6.99,4.83,7.011,4.797,7.042,4.827
				c0.031,0.028-0.003,0.052-0.031,0.07C7,4.885,6.99,4.874,6.979,4.862z"/>
			<path style="fill-rule:evenodd;clip-rule:evenodd;fill:#019FDA;" d="M7.792,35.792c-0.014-0.008-0.029-0.017-0.043-0.026
				c0.043-0.025,0.043,0,0.038,0.031L7.792,35.792z"/>
		</g>
	</g>
	<g>
		<path style="fill:#FFFFFF;" d="M100.568,12.002c0.352,0,0.693,0.092,1.029,0.27c0.334,0.183,0.596,0.439,0.781,0.775
			s0.281,0.687,0.281,1.05c0,0.361-0.094,0.708-0.277,1.04c-0.184,0.334-0.443,0.592-0.773,0.776
			c-0.334,0.185-0.68,0.275-1.041,0.275c-0.363,0-0.709-0.091-1.043-0.275c-0.33-0.185-0.59-0.442-0.775-0.776
			c-0.186-0.332-0.277-0.679-0.277-1.04c0-0.363,0.094-0.714,0.283-1.05c0.186-0.336,0.449-0.593,0.781-0.775
			C99.873,12.094,100.217,12.002,100.568,12.002z M100.568,12.349c-0.295,0-0.582,0.077-0.859,0.226
			c-0.279,0.152-0.496,0.368-0.652,0.646c-0.158,0.281-0.236,0.573-0.236,0.876c0,0.302,0.076,0.591,0.23,0.868
			c0.154,0.275,0.369,0.491,0.648,0.646c0.277,0.155,0.566,0.232,0.869,0.232c0.301,0,0.59-0.077,0.867-0.232
			c0.279-0.154,0.494-0.37,0.646-0.646c0.154-0.277,0.23-0.566,0.23-0.868c0-0.303-0.078-0.595-0.234-0.876
			c-0.158-0.278-0.373-0.494-0.654-0.646C101.146,12.426,100.859,12.349,100.568,12.349z M99.648,15.254v-2.252h0.775
			c0.264,0,0.455,0.021,0.574,0.061c0.117,0.043,0.213,0.115,0.283,0.219s0.105,0.214,0.105,0.33c0,0.164-0.061,0.309-0.178,0.43
			c-0.117,0.123-0.273,0.191-0.467,0.205c0.08,0.035,0.143,0.074,0.191,0.12c0.09,0.089,0.201,0.238,0.332,0.446l0.275,0.441h-0.443
			l-0.199-0.355c-0.158-0.279-0.285-0.453-0.381-0.523c-0.066-0.053-0.164-0.078-0.291-0.078h-0.213v0.957H99.648z M100.014,13.986
			h0.441c0.209,0,0.352-0.031,0.43-0.095s0.117-0.146,0.117-0.249c0-0.066-0.02-0.127-0.059-0.18
			c-0.035-0.052-0.088-0.092-0.152-0.118c-0.066-0.025-0.188-0.038-0.365-0.038h-0.412V13.986z"/>
	</g>
</g>
</svg>
