<?xml version="1.0" encoding="iso-8859-1"?>
<!-- Generator: Adobe Illustrator 16.0.0, SVG Export Plug-In . SVG Version: 6.00 Build 0)  -->
<!DOCTYPE svg PUBLIC "-//W3C//DTD SVG 1.1//EN" "http://www.w3.org/Graphics/SVG/1.1/DTD/svg11.dtd">
<svg version="1.1" id="Layer_1" xmlns="http://www.w3.org/2000/svg" xmlns:xlink="http://www.w3.org/1999/xlink" x="0px" y="0px"
	 width="60.006px" height="80.408px" viewBox="0 0 60.006 80.408" style="enable-background:new 0 0 60.006 80.408;"
	 xml:space="preserve">
<g>
	<g>
		<path style="fill:#FFFFFF;" d="M16.306,77.068h1.635v0.087c0,0.538-0.186,1.085-0.558,1.64s-0.877,0.963-1.516,1.223
			s-1.389,0.391-2.25,0.391c-1.734,0-3.152-0.604-4.254-1.811c-1.102-1.205-1.652-3.012-1.652-5.419
			c0-2.396,0.548-4.198,1.644-5.411c1.096-1.212,2.52-1.818,4.271-1.818c0.855,0,1.603,0.131,2.241,0.391s1.144,0.672,1.516,1.236
			c0.372,0.563,0.558,1.105,0.558,1.626v0.087h-1.635v-0.088c0-0.334-0.104-0.654-0.312-0.962c-0.208-0.308-0.507-0.539-0.897-0.694
			s-0.858-0.232-1.404-0.232c-1.396,0-2.437,0.551-3.12,1.652c-0.684,1.102-1.025,2.504-1.025,4.209c0,1.723,0.343,3.133,1.03,4.229
			c0.686,1.096,1.722,1.643,3.106,1.643c0.951,0,1.625-0.195,2.024-0.586s0.599-0.825,0.599-1.304V77.068z"/>
		<path style="fill:#FFFFFF;" d="M25.227,80.408c-1.705,0-3.097-0.627-4.175-1.881s-1.617-3.039-1.617-5.354
			s0.539-4.097,1.617-5.348s2.47-1.877,4.175-1.877s3.098,0.626,4.18,1.877c1.08,1.251,1.621,3.033,1.621,5.348
			s-0.541,4.1-1.621,5.354C28.324,79.781,26.932,80.408,25.227,80.408z M25.23,79.045c1.244,0,2.215-0.535,2.912-1.605
			c0.699-1.069,1.048-2.49,1.048-4.261c0-1.765-0.349-3.185-1.048-4.257c-0.697-1.073-1.668-1.609-2.912-1.609
			c-1.237,0-2.207,0.536-2.908,1.609c-0.7,1.072-1.051,2.492-1.051,4.257c0,1.771,0.351,3.191,1.051,4.261
			C23.023,78.51,23.993,79.045,25.23,79.045z"/>
		<path style="fill:#FFFFFF;" d="M34.912,79.994h-1.775V66.354h4.219c1.037,0,1.816,0.15,2.338,0.449s0.935,0.73,1.239,1.296
			s0.457,1.179,0.457,1.841c0,0.533-0.103,1.045-0.306,1.534c-0.205,0.489-0.492,0.932-0.862,1.327s-0.948,0.748-1.732,1.059
			c0.294,0.164,0.515,0.32,0.662,0.467s0.327,0.383,0.538,0.711c0.213,0.328,0.397,0.637,0.555,0.924l2.17,4.033h-2.035
			l-1.883-3.586c-0.458-0.867-1.055-1.625-1.791-2.275h-1.793V79.994z M34.912,72.77h1.734c0.734,0,1.291-0.112,1.669-0.338
			c0.379-0.227,0.68-0.555,0.903-0.986c0.223-0.432,0.334-0.895,0.334-1.387c0-0.429-0.088-0.812-0.264-1.148
			c-0.177-0.338-0.436-0.621-0.775-0.851c-0.34-0.229-0.919-0.343-1.734-0.343h-1.867V72.77z"/>
		<path style="fill:#FFFFFF;" d="M44.044,79.994V66.354h7.708v1.504h-5.933v4.297h5.186v1.363h-5.186v4.975h6.407v1.502H44.044z"/>
	</g>
	<g>
		<g>
			<path style="fill:#FFFFFF;" d="M7.785,52.253c-2.505-2.506-3.83-6.104-3.83-10.405c0-0.254,0.012-0.51,0.023-0.768
				c-1.206-1.765-2.29-3.574-3.235-5.404c-0.472,2.13-0.709,4.198-0.709,6.172c0,5.365,1.721,9.921,4.978,13.179
				c4.479,4.48,11.46,6.019,19.376,4.268c0.013-0.002,0.024-0.006,0.037-0.008c-1.84-0.945-3.657-2.027-5.433-3.231
				C14.333,56.22,10.44,54.909,7.785,52.253z"/>
		</g>
		<g>
			<path style="fill:#FFFFFF;" d="M54.999,5.036C51.704,1.742,47.128,0,41.761,0c-2.684,0-5.517,0.434-8.418,1.288
				c-1.001,0.293-2.044,0.653-3.101,1.066c-2.399,0.941-4.803,2.151-7.142,3.604c-0.944,0.584-1.873,1.203-2.764,1.84
				c-2.369,1.699-4.654,3.642-6.788,5.776c-2.047,2.048-3.926,4.255-5.589,6.565c0.089,0.856,0.229,1.716,0.415,2.56
				c0.194,0.886,0.45,1.801,0.762,2.737c1.954-3.217,4.365-6.269,7.185-9.089c3.264-3.266,6.88-5.986,10.745-8.087
				c0.874-0.476,1.774-0.924,2.673-1.33c2.53-1.145,5.055-1.967,7.506-2.442c1.212-0.234,2.407-0.383,3.553-0.438
				c4.744-0.241,8.742,1.074,11.429,3.758c2.503,2.504,3.827,6.103,3.827,10.405c0,0.307-0.017,0.615-0.03,0.925l-0.007,0.146
				c-0.055,1.184-0.197,2.38-0.42,3.555c-0.471,2.475-1.317,5.043-2.514,7.635c-0.43,0.928-0.883,1.823-1.347,2.662
				c-2.095,3.773-4.802,7.332-8.048,10.578c-2.804,2.803-5.859,5.208-9.104,7.169c1.843,0.605,3.641,0.993,5.366,1.155
				c2.292-1.656,4.48-3.522,6.511-5.551c2.095-2.098,4.013-4.354,5.692-6.707c0.59-0.825,1.191-1.734,1.839-2.782
				c1.482-2.399,2.718-4.866,3.667-7.327c0.403-1.041,0.755-2.083,1.045-3.091c0.844-2.908,1.271-5.722,1.271-8.366
				C59.975,12.849,58.255,8.291,54.999,5.036z"/>
		</g>
		<g>
			<g>
				<g>
					<path style="fill:#019FDA;" d="M44.469,22.821c0.321,0.621,0.553,1.188,0.755,1.765c0.225,0.635,0.431,1.271,0.49,1.949
						c0.088,1.113-0.318,2.035-1.064,2.82c-0.914,0.96-2.07,1.529-3.291,1.979c-1.568,0.574-3.201,0.893-4.861,1.09
						c-1.661,0.204-3.332,0.283-5.014,0.264c-3.479-0.052-6.935-0.34-10.307-1.289c-1.697-0.479-3.326-1.107-4.799-2.09
						c-0.642-0.435-1.227-0.931-1.702-1.552c-0.382-0.504-0.529-1.022-0.344-1.654c0.284-0.991,0.6-1.968,1.031-2.904
						c0.021-0.041,0.043-0.078,0.105-0.179c-0.071,0.437-0.166,0.798-0.141,1.167c0.082,1.105,0.671,1.935,1.469,2.63
						c1.191,1.042,2.607,1.652,4.097,2.106c1.683,0.513,3.403,0.764,5.155,0.84c2.044,0.085,4.061-0.126,6.071-0.448
						c2.425-0.396,4.808-0.968,7.106-1.84c1.317-0.503,2.59-1.096,3.708-1.975c0.253-0.198,0.489-0.419,0.706-0.657
						C44.138,24.295,44.476,23.668,44.469,22.821z"/>
					<path style="fill:#019FDA;" d="M46.114,29.141c0.086,1.47,0.012,2.933-0.378,4.359c-0.312,1.152-1.096,1.979-2.016,2.681
						c-1.396,1.057-2.995,1.666-4.666,2.104c-2.063,0.543-4.171,0.784-6.294,0.879c-1.71,0.071-3.421,0.077-5.131-0.069
						c-3.657-0.317-7.171-1.139-10.358-3.056c-0.703-0.419-1.35-0.91-1.963-1.449c-0.802-0.701-1.269-1.554-1.335-2.628
						c-0.04-0.645-0.102-1.284-0.115-1.927c0.055-0.023,0.069,0.012,0.076,0.041c0.455,1.434,1.392,2.514,2.545,3.416
						c1.704,1.341,3.671,2.1,5.775,2.539c2.486,0.514,4.992,0.538,7.509,0.278c3.929-0.407,7.712-1.378,11.307-3.022
						c1.42-0.646,2.782-1.406,3.935-2.483C45.499,30.347,45.919,29.826,46.114,29.141z"/>
					<path style="fill:#019FDA;" d="M19.52,17.811c-0.328,0.5-0.596,1.016-0.569,1.643c0.042,1.12,0.621,1.921,1.518,2.516
						c0.971,0.642,2.066,0.925,3.195,1.098c1.982,0.302,3.967,0.231,5.951,0.061c2.102-0.182,4.166-0.564,6.168-1.242
						c1.271-0.428,2.489-0.959,3.589-1.74c0.436-0.311,0.845-0.661,1.142-1.123c0.214-0.328,0.319-0.68,0.188-1.067l-0.009,0.007
						c0.093-0.033,0.126,0.053,0.17,0.097c0.643,0.589,1.226,1.232,1.793,1.892c1.12,1.299,0.755,2.663-0.201,3.656
						c-0.757,0.785-1.692,1.283-2.695,1.671c-1.598,0.622-3.27,0.911-4.967,1.066c-1.681,0.153-3.363,0.16-5.048,0.049
						c-3.254-0.22-6.453-0.722-9.495-1.986c-0.991-0.41-1.938-0.915-2.704-1.702c-0.266-0.274-0.479-0.577-0.626-0.932
						c-0.206-0.502-0.186-0.965,0.152-1.417c0.53-0.712,1.11-1.381,1.757-1.989c0.213-0.205,0.405-0.431,0.665-0.583
						C19.503,17.794,19.51,17.807,19.52,17.811z"/>
					<path style="fill:#019FDA;" d="M29.199,20.322c-1.922-0.032-3.936-0.167-5.897-0.75c-0.703-0.209-1.387-0.471-1.996-0.902
						c-0.251-0.173-0.48-0.375-0.637-0.64c-0.269-0.448-0.228-0.827,0.128-1.197c0.242-0.256,0.536-0.448,0.838-0.626
						c2.853-1.734,5.959-2.498,9.284-2.324c2.724,0.146,5.252,0.942,7.573,2.388c0.135,0.085,0.269,0.176,0.396,0.277
						c0.415,0.344,0.472,0.728,0.172,1.179c-0.221,0.339-0.538,0.576-0.872,0.779c-1.026,0.623-2.156,0.957-3.31,1.228
						C33.045,20.152,31.182,20.307,29.199,20.322z"/>
					<path style="fill:#019FDA;" d="M44.99,35.913c0.038,0.068,0.011,0.118-0.017,0.176c-0.608,1.459-1.352,2.83-2.523,3.925
						c-1.08,1.003-2.351,1.686-3.712,2.216c-1.92,0.741-3.913,1.155-5.96,1.286c-3.345,0.214-6.638-0.073-9.857-1.03
						c-1.889-0.556-3.648-1.365-5.185-2.628c-0.778-0.641-1.619-1.531-2.253-2.774c0.065-0.053,0.096,0,0.13,0.041
						c1.128,1.466,2.658,2.369,4.335,3.059c2.084,0.855,4.261,1.306,6.497,1.448c4.008,0.253,7.94-0.187,11.774-1.411
						c1.744-0.553,3.403-1.304,4.887-2.404c0.725-0.539,1.357-1.166,1.887-1.901L44.99,35.913z"/>
					<path style="fill:#019FDA;" d="M20.26,42.802c0.936,0.454,1.891,0.857,2.89,1.139c1.732,0.491,3.498,0.741,5.295,0.835
						c3.23,0.162,6.398-0.173,9.447-1.318c0.773-0.291,1.521-0.632,2.236-1.045c0.064-0.037,0.127-0.097,0.241-0.078
						c-0.023,0.125-0.131,0.168-0.206,0.223c-2.215,1.781-4.719,2.934-7.525,3.376c-4.029,0.642-7.779-0.128-11.246-2.273
						c-0.402-0.251-0.799-0.516-1.164-0.819C20.239,42.825,20.248,42.816,20.26,42.802z"/>
					<path style="fill:#019FDA;" d="M20.228,42.84c-0.029-0.021-0.08-0.031-0.076-0.088l-0.006,0.005
						c0.051-0.017,0.088,0,0.114,0.045C20.248,42.816,20.239,42.825,20.228,42.84z"/>
					<path style="fill:#019FDA;" d="M44.993,35.914c0.009-0.001,0.02-0.004,0.023-0.008c-0.007,0.004-0.016,0.006-0.026,0.007
						L44.993,35.914z"/>
					<path style="fill:#019FDA;" d="M40.7,17.954c-0.009-0.007-0.023-0.013-0.029-0.021c0.029-0.01,0.041-0.006,0.021,0.027
						L40.7,17.954z"/>
					<path style="fill:#019FDA;" d="M19.493,17.782c0.01-0.023,0.026-0.047,0.046-0.024c0.029,0.023,0,0.042-0.02,0.053
						C19.51,17.807,19.503,17.794,19.493,17.782z"/>
					<path style="fill:#019FDA;" d="M20.151,42.752c-0.014-0.004-0.026-0.012-0.039-0.019c0.035-0.022,0.039,0,0.033,0.023
						L20.151,42.752z"/>
				</g>
			</g>
		</g>
		<g>
			<path style="fill:#FFFFFF;" d="M59.298,35.562c-0.973,1.893-2.086,3.76-3.324,5.571c0.16,4.63-1.141,8.463-3.773,11.094
				c-2.655,2.656-6.557,4.033-11.195,3.802l-0.207-0.009c-1.195-0.052-2.404-0.191-3.59-0.418c-2.459-0.464-5.004-1.296-7.568-2.471
				c-0.951-0.437-1.822-0.873-2.662-1.339c-3.809-2.099-7.402-4.824-10.68-8.104c-3.246-3.248-5.96-6.834-8.067-10.664
				c-0.473-0.858-0.926-1.754-1.338-2.66c-1.077-2.35-1.866-4.646-2.346-6.82c-0.031-0.142-0.054-0.278-0.075-0.417l-0.044-0.258
				c-0.241-1.236-0.394-2.427-0.452-3.544c-0.257-4.818,1.052-8.81,3.783-11.541c2.667-2.666,6.589-4.029,11.24-3.805
				c1.758-1.2,3.56-2.281,5.381-3.228c-2.145-0.477-4.227-0.717-6.215-0.717c-5.364,0-9.923,1.721-13.179,4.977
				C0.47,9.525-1.046,16.408,0.716,24.389c0.147,0.677,0.341,1.412,0.586,2.253c0.306,1.048,0.661,2.095,1.058,3.114
				c0.936,2.416,2.146,4.83,3.594,7.18c0.574,0.932,1.194,1.863,1.842,2.77c1.698,2.381,3.625,4.652,5.729,6.755
				c2.122,2.124,4.418,4.066,6.826,5.776c0.857,0.61,1.764,1.206,2.771,1.823c2.362,1.452,4.79,2.664,7.216,3.601
				c1.049,0.402,2.103,0.759,3.127,1.056c8.798,2.54,16.657,1.137,21.509-3.716C59.522,50.451,61.053,43.455,59.298,35.562z"/>
		</g>
	</g>
</g>
</svg>
