<?xml version="1.0" encoding="iso-8859-1"?>
<!-- Generator: Adobe Illustrator 16.0.0, SVG Export Plug-In . SVG Version: 6.00 Build 0)  -->
<!DOCTYPE svg PUBLIC "-//W3C//DTD SVG 1.1//EN" "http://www.w3.org/Graphics/SVG/1.1/DTD/svg11.dtd">
<svg version="1.1" id="Layer_1" xmlns="http://www.w3.org/2000/svg" xmlns:xlink="http://www.w3.org/1999/xlink" x="0px" y="0px"
	 width="29.71px" height="29.709px" viewBox="0 0 29.71 29.709" style="enable-background:new 0 0 29.71 29.709;"
	 xml:space="preserve">
<g>
	<g>
		<path style="fill:#019FDA;" d="M15.017,16.414c-0.937,0-1.695-0.76-1.695-1.696s0.759-1.694,1.695-1.694
			c0.935,0,1.694,0.758,1.694,1.694S15.952,16.414,15.017,16.414z"/>
		<path style="fill:#019FDA;" d="M14.856,29.709C6.665,29.709,0,23.045,0,14.854C0,6.664,6.665,0,14.856,0
			c8.19,0,14.854,6.664,14.854,14.854C29.71,23.045,23.046,29.709,14.856,29.709z M14.856,1C7.215,1,1,7.215,1,14.854
			c0,7.64,6.215,13.854,13.855,13.854c7.64,0,13.854-6.215,13.854-13.854C28.71,7.215,22.496,1,14.856,1z"/>
	</g>
</g>
<g>
	<g>
		<path style="fill:#019FDA;" d="M15.346,28.029c-1.23,0-2.159-0.053-2.76-0.158c-1.969-0.339-2.734-1.414-3.029-2.257
			c-0.609-1.744,0.15-4.195,2.32-7.496c0.243-0.369,0.489-0.726,0.731-1.064c0-0.001-0.001-0.002-0.002-0.003l0.016-0.016
			c0.086-0.121,0.172-0.24,0.257-0.356l0.052,0.038l0.373-0.383c0.088,0.085,0.181,0.166,0.278,0.239l0.397,0.296l-0.292,0.399
			c-0.318,0.436-0.649,0.906-0.974,1.399c-1.933,2.938-2.698,5.227-2.212,6.616c0.304,0.869,1.042,1.393,2.256,1.602
			c0.537,0.094,1.432,0.144,2.589,0.144c0.348,0,0.581-0.006,0.584-0.006c0.063-0.001,0.11-0.05,0.11-0.111l1-0.006
			c0.004,0.604-0.484,1.104-1.087,1.117l0,0C15.954,28.023,15.709,28.029,15.346,28.029z M23.859,23.11
			c-1.835,0-3.916-1.489-6.361-4.555c-0.311-0.389-0.602-0.773-0.878-1.147l0.805-0.594c0.269,0.364,0.552,0.739,0.854,1.117
			c2.182,2.734,4.111,4.179,5.58,4.179c0.931,0,1.695-0.555,2.272-1.65c0.491-0.932,1.087-2.894,1.112-2.977
			c0.018-0.06-0.013-0.119-0.07-0.138l-9.098-2.913l-0.027-0.333c-0.019-0.221-0.062-0.437-0.128-0.643l0.951-0.309
			c0.056,0.173,0.1,0.35,0.131,0.531l8.474,2.713c0.575,0.182,0.901,0.802,0.725,1.381c-0.065,0.217-0.658,2.154-1.185,3.153
			C26.065,22.731,24.774,23.11,23.859,23.11z M2.418,19.542c-0.125-0.36-0.743-2.177-0.896-3.248
			c-0.188-1.299,0.06-2.353,0.737-3.132c1.414-1.634,4.485-1.724,9.13-0.326l-5.31-7.244l0.807-0.591l5.874,8.013l-0.104,0.258
			c-0.053,0.131-0.096,0.268-0.129,0.407l-0.125,0.527l-0.515-0.167c-2.393-0.777-4.459-1.188-5.978-1.188
			c-1.364,0-2.338,0.325-2.893,0.966c-0.478,0.551-0.646,1.336-0.502,2.335c0.109,0.761,0.526,2.122,0.849,3.056L2.418,19.542z
			 M14.463,11.585l-0.005-0.548c-0.033-3.775-0.618-6.397-1.691-7.583c-0.473-0.521-1.021-0.774-1.675-0.774v-1
			c0.938,0,1.751,0.371,2.416,1.102c1.205,1.331,1.857,3.93,1.942,7.73L20.7,3.219c0.352-0.49,1.04-0.608,1.537-0.263
			c0.008,0.005,1.8,1.242,2.635,2.1c1.393,1.433,1.38,2.752,1.123,3.606l-0.957-0.287c0.264-0.882-0.025-1.74-0.883-2.622
			c-0.692-0.712-2.269-1.827-2.481-1.971c-0.062-0.042-0.128-0.026-0.161,0.021l-5.6,7.779l-0.297-0.039
			c-0.201-0.025-0.408-0.033-0.607-0.013L14.463,11.585z"/>
	</g>
</g>
</svg>
