<?xml version="1.0" encoding="iso-8859-1"?>
<!-- Generator: Adobe Illustrator 16.0.0, SVG Export Plug-In . SVG Version: 6.00 Build 0)  -->
<!DOCTYPE svg PUBLIC "-//W3C//DTD SVG 1.1//EN" "http://www.w3.org/Graphics/SVG/1.1/DTD/svg11.dtd">
<svg version="1.1" id="Layer_1" xmlns="http://www.w3.org/2000/svg" xmlns:xlink="http://www.w3.org/1999/xlink" x="0px" y="0px"
	 width="28.415px" height="27.808px" viewBox="0 0 28.415 27.808" style="enable-background:new 0 0 28.415 27.808;"
	 xml:space="preserve">
<g>
	<g>
		<g>
			<path style="fill:#019FDA;" d="M11.675,5.854c0.436,0,0.786,0.321,0.788,0.721v3.061h-1.946V6.574
				c0-0.399,0.352-0.721,0.788-0.721H11.675 M11.675,4.854h-0.37c-0.986,0-1.788,0.772-1.788,1.721v3.061v1h1h1.946h1v-1V6.574
				C13.459,5.623,12.657,4.854,11.675,4.854L11.675,4.854z"/>
			<path style="fill:#019FDA;" d="M16.895,5.854c0.436,0,0.787,0.321,0.787,0.721v3.061h-1.945V6.574
				c0-0.399,0.354-0.721,0.787-0.721H16.895 M16.895,4.854h-0.371c-0.985,0-1.787,0.772-1.787,1.721v3.061v1h1h1.945h1v-1V6.574
				C18.682,5.626,17.88,4.854,16.895,4.854L16.895,4.854z"/>
			<path style="fill:#019FDA;" d="M10.248,27.808c-0.193,0-0.385-0.031-0.569-0.094c-2.111-0.688-4.066-1.892-5.649-3.482
				c-2.667-2.679-4.137-6.238-4.137-10.022C-0.108,6.374,6.265,0,14.099,0c3.669,0,7.155,1.4,9.813,3.942
				c2.834,2.711,4.395,6.358,4.395,10.27c0,3.812-1.487,7.389-4.187,10.072c-0.611,0.558-3.507,3.059-6.179,3.059
				c-1.509,0-2.818-0.572-3.786-1.655c-1.522-1.699-1.909-4.299-1.942-6.329C9.946,18.949,8.23,16.941,8.23,14.6V9.992h11.739V14.6
				c0,2.413-1.77,4.427-4.109,4.777c0.027,1.105,0.2,2.98,1.011,3.882c0.185,0.205,0.168,0.521-0.038,0.706
				c-0.206,0.184-0.522,0.168-0.706-0.038c-1.126-1.253-1.279-3.673-1.271-5.004l0.003-0.473l0.472-0.023
				c2.04-0.104,3.639-1.785,3.639-3.827v-3.607H9.23V14.6c0,1.98,1.547,3.659,3.522,3.822l0.462,0.038l-0.003,0.464
				c-0.012,1.56,0.191,4.425,1.689,6.097c0.773,0.865,1.825,1.322,3.041,1.322c2.354,0,5.14-2.463,5.449-2.743
				c2.534-2.519,3.916-5.845,3.916-9.388c0-3.636-1.451-7.026-4.086-9.547C20.75,2.302,17.51,1,14.099,1
				C6.817,1,0.892,6.926,0.892,14.209c0,3.519,1.366,6.827,3.846,9.317c1.472,1.479,3.289,2.599,5.254,3.238
				c0.446,0.152,0.899-0.104,1.036-0.524c0.068-0.208,0.051-0.431-0.048-0.626s-0.269-0.341-0.477-0.408
				c-1.726-0.563-3.317-1.544-4.602-2.837c-0.195-0.196-0.194-0.513,0.002-0.707s0.513-0.195,0.707,0.002
				c1.174,1.181,2.627,2.077,4.203,2.591c0.462,0.151,0.838,0.474,1.058,0.907c0.22,0.434,0.258,0.927,0.106,1.389
				C11.734,27.303,11.038,27.808,10.248,27.808z"/>
			<path style="fill:#019FDA;" d="M21.928,22.533c-0.128,0-0.256-0.049-0.354-0.146c-0.195-0.195-0.195-0.512,0-0.707
				c1.995-1.995,3.094-4.648,3.094-7.471c0-5.827-4.74-10.568-10.567-10.568c-0.276,0-0.5-0.224-0.5-0.5s0.224-0.5,0.5-0.5
				c6.378,0,11.567,5.189,11.567,11.568c0,3.09-1.203,5.994-3.387,8.178C22.184,22.484,22.056,22.533,21.928,22.533z"/>
		</g>
	</g>
</g>
</svg>
