<?xml version="1.0" encoding="iso-8859-1"?>
<!-- Generator: Adobe Illustrator 16.0.0, SVG Export Plug-In . SVG Version: 6.00 Build 0)  -->
<!DOCTYPE svg PUBLIC "-//W3C//DTD SVG 1.1//EN" "http://www.w3.org/Graphics/SVG/1.1/DTD/svg11.dtd">
<svg version="1.1" id="Layer_1" xmlns="http://www.w3.org/2000/svg" xmlns:xlink="http://www.w3.org/1999/xlink" x="0px" y="0px"
	 width="27.156px" height="28.473px" viewBox="0 0 27.156 28.473" style="enable-background:new 0 0 27.156 28.473;"
	 xml:space="preserve">
<g>
	<g>
		<path style="fill:#019FDA;" d="M25.187,28.473H1.973C0.885,28.473,0,27.589,0,26.502v-4.575c0-1.086,0.885-1.97,1.973-1.97h23.214
			c1.086,0,1.969,0.884,1.969,1.97v4.575C27.156,27.589,26.273,28.473,25.187,28.473z M1.973,21.207
			c-0.398,0-0.723,0.323-0.723,0.72v4.575c0,0.397,0.324,0.721,0.723,0.721h23.214c0.396,0,0.719-0.323,0.719-0.721v-4.575
			c0-0.396-0.322-0.72-0.719-0.72H1.973z"/>
		<path style="fill:#019FDA;" d="M3.332,23.938c-0.458,0-0.83-0.369-0.83-0.83c0-0.459,0.372-0.828,0.83-0.828
			c0.459,0,0.83,0.369,0.83,0.828C4.162,23.568,3.791,23.938,3.332,23.938z M23.271,26.328h-5.865v-1.947h5.865V26.328
			L23.271,26.328z"/>
	</g>
	<g>
		<path style="fill:#019FDA;" d="M25.187,18.494H1.973C0.885,18.494,0,17.61,0,16.523v-4.576c0-1.085,0.885-1.969,1.973-1.969
			h23.214c1.086,0,1.969,0.884,1.969,1.969v4.576C27.156,17.61,26.273,18.494,25.187,18.494z M1.973,11.229
			c-0.398,0-0.723,0.322-0.723,0.719v4.576c0,0.397,0.324,0.721,0.723,0.721h23.214c0.396,0,0.719-0.323,0.719-0.721v-4.576
			c0-0.396-0.322-0.719-0.719-0.719H1.973z"/>
		<path style="fill:#019FDA;" d="M3.332,13.959c-0.458,0-0.83-0.369-0.83-0.83c0-0.458,0.372-0.829,0.83-0.829
			c0.459,0,0.83,0.37,0.83,0.829C4.162,13.59,3.791,13.959,3.332,13.959z M23.271,16.35h-5.865v-1.946h5.865V16.35L23.271,16.35z"/>
	</g>
	<g>
		<path style="fill:#019FDA;" d="M25.187,8.516H1.973C0.885,8.516,0,7.632,0,6.545V1.97C0,0.884,0.885,0,1.973,0h23.214
			c1.086,0,1.969,0.884,1.969,1.97v4.575C27.156,7.632,26.273,8.516,25.187,8.516z M1.973,1.25c-0.398,0-0.723,0.323-0.723,0.72
			v4.575c0,0.397,0.324,0.721,0.723,0.721h23.214c0.396,0,0.719-0.323,0.719-0.721V1.97c0-0.396-0.322-0.72-0.719-0.72H1.973z"/>
		<path style="fill:#019FDA;" d="M3.332,3.98c-0.458,0-0.83-0.368-0.83-0.83c0-0.458,0.372-0.828,0.83-0.828
			c0.459,0,0.83,0.369,0.83,0.828C4.162,3.612,3.791,3.98,3.332,3.98z M23.271,6.371h-5.865V4.425h5.865V6.371L23.271,6.371z"/>
	</g>
</g>
</svg>
