<?xml version="1.0" encoding="iso-8859-1"?>
<!-- Generator: Adobe Illustrator 16.0.0, SVG Export Plug-In . SVG Version: 6.00 Build 0)  -->
<!DOCTYPE svg PUBLIC "-//W3C//DTD SVG 1.1//EN" "http://www.w3.org/Graphics/SVG/1.1/DTD/svg11.dtd">
<svg version="1.1" id="Layer_1" xmlns="http://www.w3.org/2000/svg" xmlns:xlink="http://www.w3.org/1999/xlink" x="0px" y="0px"
	 width="29.836px" height="32.945px" viewBox="0 0 29.836 32.945" style="enable-background:new 0 0 29.836 32.945;"
	 xml:space="preserve">
<g>
	<path style="fill:#019FDA;" d="M17.719,32.945h-5.6c-1.252,0-2.271-1.019-2.271-2.271V2.272C9.848,1.02,10.867,0,12.119,0h5.6
		c1.251,0,2.27,1.02,2.27,2.272v28.401C19.988,31.927,18.97,32.945,17.719,32.945z M12.119,1.25c-0.563,0-1.021,0.458-1.021,1.022
		v28.401c0,0.563,0.458,1.021,1.021,1.021h5.6c0.562,0,1.02-0.458,1.02-1.021V2.272c0-0.564-0.457-1.022-1.02-1.022H12.119z"/>
	<path style="fill:#019FDA;" d="M29.211,28.429h-7.257c-0.345,0-0.625-0.28-0.625-0.625V6.232c0-0.346,0.28-0.625,0.625-0.625h7.257
		c0.345,0,0.625,0.279,0.625,0.625v21.571C29.836,28.148,29.556,28.429,29.211,28.429z M22.579,27.179h6.007V6.857h-6.007V27.179z"
		/>
	<path style="fill:#019FDA;" d="M7.883,28.429H0.625C0.28,28.429,0,28.148,0,27.804V6.232c0-0.346,0.28-0.625,0.625-0.625h7.258
		c0.345,0,0.625,0.279,0.625,0.625v21.571C8.508,28.148,8.228,28.429,7.883,28.429z M1.25,27.179h6.008V6.857H1.25V27.179z"/>
	<path style="fill:#019FDA;" d="M15.465,3.594c0-0.559,0.454-1.016,1.014-1.016s1.014,0.457,1.014,1.016
		c0,0.564-0.454,1.018-1.014,1.018C15.918,4.611,15.465,4.158,15.465,3.594z M12.537,27.988v-7.175h2.381v7.175H12.537
		L12.537,27.988z"/>
</g>
</svg>
