<?xml version="1.0" encoding="iso-8859-1"?>
<!-- Generator: Adobe Illustrator 16.0.0, SVG Export Plug-In . SVG Version: 6.00 Build 0)  -->
<!DOCTYPE svg PUBLIC "-//W3C//DTD SVG 1.1//EN" "http://www.w3.org/Graphics/SVG/1.1/DTD/svg11.dtd">
<svg version="1.1" id="Layer_1" xmlns="http://www.w3.org/2000/svg" xmlns:xlink="http://www.w3.org/1999/xlink" x="0px" y="0px"
	 width="27.156px" height="28.05px" viewBox="0 0 27.156 28.05" style="enable-background:new 0 0 27.156 28.05;"
	 xml:space="preserve">
<g>
	<g>
		<path style="fill:#019FDA;" d="M18.682,7.465c-0.315,0-0.586-0.238-0.62-0.559c-0.037-0.343,0.211-0.651,0.555-0.688
			c5.453-0.584,7.289-1.861,7.289-2.353c0-0.176-0.265-0.514-1.009-0.888c-1.58-0.79-4.6-1.397-8.079-1.625
			c-1.05-0.068-2.14-0.103-3.238-0.103c-7.978,0-12.33,1.728-12.33,2.615c0,0.28,0.75,1.164,4.171,1.875
			c0.338,0.07,0.555,0.401,0.484,0.739C5.835,6.817,5.505,7.034,5.167,6.964C1.738,6.251,0,5.208,0,3.865C0,1.209,7.04,0,13.58,0
			c1.126,0,2.242,0.036,3.32,0.106c3.69,0.241,6.81,0.88,8.557,1.754c1.128,0.566,1.699,1.241,1.699,2.005
			c0,2.432-5.879,3.325-8.406,3.596C18.727,7.464,18.705,7.465,18.682,7.465z"/>
		<path style="fill:#019FDA;" d="M13.58,17.903C6.997,17.903,0,16.55,0,14.041v-6.48c0-0.345,0.28-0.625,0.625-0.625
			S1.25,7.215,1.25,7.561v6.48c0,0.921,4.681,2.612,12.33,2.612c7.646,0,12.326-1.691,12.326-2.612V9.257
			c-2.303,1.418-7.429,2.168-12.326,2.168c-0.345,0-0.625-0.28-0.625-0.625s0.28-0.625,0.625-0.625
			c7.646,0,12.326-1.692,12.326-2.614c0-0.345,0.28-0.625,0.625-0.625s0.625,0.28,0.625,0.625v6.48
			C27.156,16.55,20.161,17.903,13.58,17.903z"/>
		<path style="fill:#019FDA;" d="M13.58,28.05C6.997,28.05,0,26.695,0,24.185v-6.476c0-0.345,0.28-0.625,0.625-0.625
			s0.625,0.28,0.625,0.625v6.476c0,0.922,4.681,2.615,12.33,2.615c7.646,0,12.326-1.693,12.326-2.615v-4.779
			c-2.303,1.417-7.429,2.167-12.326,2.167c-0.345,0-0.625-0.28-0.625-0.625s0.28-0.625,0.625-0.625
			c7.646,0,12.326-1.692,12.326-2.613c0-0.345,0.28-0.625,0.625-0.625s0.625,0.28,0.625,0.625v6.476
			C27.156,26.695,20.161,28.05,13.58,28.05z"/>
	</g>
</g>
</svg>
