<?xml version="1.0" encoding="iso-8859-1"?>
<!-- Generator: Adobe Illustrator 16.0.0, SVG Export Plug-In . SVG Version: 6.00 Build 0)  -->
<!DOCTYPE svg PUBLIC "-//W3C//DTD SVG 1.1//EN" "http://www.w3.org/Graphics/SVG/1.1/DTD/svg11.dtd">
<svg version="1.1" id="Layer_1" xmlns="http://www.w3.org/2000/svg" xmlns:xlink="http://www.w3.org/1999/xlink" x="0px" y="0px"
	 width="27.546px" height="25.46px" viewBox="0 0 27.546 25.46" style="enable-background:new 0 0 27.546 25.46;"
	 xml:space="preserve">
<g>
	<g>
		<path style="fill:#FF0000;" d="M22.402,6.65c-0.294-1.754-1.16-3.348-2.486-4.562C18.444,0.74,16.529,0,14.535,0
			c-1.541,0-3.041,0.442-4.326,1.271c-1.07,0.693-1.96,1.625-2.59,2.729C7.347,3.944,7.064,3.915,6.782,3.915
			c-2.407,0-4.367,1.961-4.367,4.369c0,0.314,0.034,0.611,0.09,0.906C0.947,10.326,0,12.146,0,14.09c0,1.57,0.583,3.095,1.649,4.301
			c1.093,1.234,2.537,1.965,4.078,2.052c0.017,0,0.028,0,0.044,0h3.507c0.426,0,0.766-0.341,0.766-0.768
			c0-0.423-0.34-0.762-0.766-0.762H5.796c-2.317-0.142-4.267-2.347-4.267-4.827c0-1.604,0.86-3.101,2.25-3.909
			c0.321-0.186,0.458-0.575,0.333-0.929C4,8.943,3.943,8.621,3.943,8.275c0-1.562,1.274-2.838,2.839-2.838
			c0.333,0,0.661,0.058,0.968,0.169c0.375,0.137,0.787-0.032,0.957-0.389c1.061-2.25,3.347-3.701,5.834-3.701
			c3.343,0,6.101,2.502,6.418,5.822c0.034,0.344,0.295,0.62,0.635,0.679c2.52,0.431,4.424,2.76,4.424,5.418
			c0,2.813-2.215,5.262-4.945,5.469h-2.811c-0.424,0-0.764,0.341-0.764,0.767c0,0.424,0.34,0.763,0.764,0.763h2.838
			c0.018,0,0.035,0,0.059,0c1.728-0.124,3.342-0.916,4.541-2.241c1.196-1.314,1.848-3.001,1.848-4.757
			C27.54,10.256,25.371,7.429,22.402,6.65z"/>
		<path style="fill:#FF0000;" d="M18.365,14.819c0.3-0.303,0.3-0.785,0-1.086l-4.051-4.05c-0.141-0.142-0.339-0.228-0.537-0.228
			c-0.199,0-0.396,0.078-0.539,0.228l-4.049,4.05c-0.301,0.301-0.301,0.783,0,1.086c0.146,0.145,0.345,0.223,0.539,0.223
			c0.191,0,0.389-0.074,0.537-0.223l2.746-2.752v12.626c0,0.427,0.34,0.767,0.766,0.767c0.425,0,0.764-0.34,0.764-0.767V12.067
			l2.748,2.752C17.583,15.117,18.064,15.117,18.365,14.819z"/>
	</g>
</g>
</svg>
