<?xml version="1.0" encoding="iso-8859-1"?>
<!-- Generator: Adobe Illustrator 16.0.0, SVG Export Plug-In . SVG Version: 6.00 Build 0)  -->
<!DOCTYPE svg PUBLIC "-//W3C//DTD SVG 1.1//EN" "http://www.w3.org/Graphics/SVG/1.1/DTD/svg11.dtd">
<svg version="1.1" id="Layer_1" xmlns="http://www.w3.org/2000/svg" xmlns:xlink="http://www.w3.org/1999/xlink" x="0px" y="0px"
	 width="28.463px" height="28.463px" viewBox="0 0 28.463 28.463" style="enable-background:new 0 0 28.463 28.463;"
	 xml:space="preserve">
<g>
	<g>
		<g>
			<path style="fill:#019FDA;" d="M24.668,4.744H3.795c-0.263,0-0.475,0.212-0.475,0.475v12.334c0,0.262,0.212,0.474,0.475,0.474
				h1.897v2.373c0,0.261,0.213,0.474,0.476,0.474H7.59v2.372c0,0.262,0.213,0.474,0.474,0.474h12.336
				c0.261,0,0.474-0.212,0.474-0.474v-2.372h1.897c0.263,0,0.474-0.213,0.474-0.474v-2.373h1.424c0.263,0,0.474-0.212,0.474-0.474
				V5.219C25.142,4.956,24.931,4.744,24.668,4.744z M24.194,17.078h-1.424c-0.263,0-0.476,0.212-0.476,0.475v2.371h-1.896
				c-0.263,0-0.476,0.213-0.476,0.476v2.371H8.539v-2.371c0-0.263-0.213-0.476-0.476-0.476H6.642v-2.371
				c0-0.263-0.213-0.475-0.474-0.475H4.269V5.692h3.795v4.744c0,0.263,0.213,0.474,0.476,0.474s0.475-0.211,0.475-0.474V5.692h0.949
				v4.744c0,0.263,0.211,0.474,0.474,0.474s0.474-0.211,0.474-0.474V5.692h0.95v4.744c0,0.263,0.211,0.474,0.474,0.474
				s0.474-0.211,0.474-0.474V5.692h0.95v4.744c0,0.263,0.211,0.474,0.474,0.474s0.474-0.211,0.474-0.474V5.692h0.949v4.744
				c0,0.263,0.212,0.474,0.475,0.474s0.474-0.211,0.474-0.474V5.692h0.95v4.744c0,0.263,0.211,0.474,0.474,0.474
				s0.474-0.211,0.474-0.474V5.692h0.949v4.744c0,0.263,0.212,0.474,0.475,0.474s0.476-0.211,0.476-0.474V5.692h3.795V17.078z"/>
		</g>
	</g>
	<g>
		<g>
			<path style="fill:#019FDA;" d="M27.039,0H1.424C0.637,0,0,0.638,0,1.424v25.615c0,0.786,0.637,1.424,1.424,1.424h25.615
				c0.787,0,1.424-0.638,1.424-1.424V1.424C28.463,0.638,27.826,0,27.039,0z M27.515,27.039c0,0.263-0.213,0.476-0.476,0.476H1.424
				c-0.263,0-0.476-0.213-0.476-0.476V1.424c0-0.263,0.213-0.475,0.476-0.475h25.615c0.263,0,0.476,0.212,0.476,0.475V27.039z"/>
		</g>
	</g>
</g>
</svg>
