<?xml version="1.0" encoding="iso-8859-1"?>
<!-- Generator: Adobe Illustrator 16.0.0, SVG Export Plug-In . SVG Version: 6.00 Build 0)  -->
<!DOCTYPE svg PUBLIC "-//W3C//DTD SVG 1.1//EN" "http://www.w3.org/Graphics/SVG/1.1/DTD/svg11.dtd">
<svg version="1.1" id="Layer_1" xmlns="http://www.w3.org/2000/svg" xmlns:xlink="http://www.w3.org/1999/xlink" x="0px" y="0px"
	 width="26px" height="26px" viewBox="0 0 26 26" style="enable-background:new 0 0 26 26;" xml:space="preserve">
<g>
	<path style="fill:#FF0000;" d="M13,2c6.074,0,11,4.926,11,11s-4.926,11-11,11C6.924,24,2,19.074,2,13S6.924,2,13,2 M13,0
		C5.832,0,0,5.832,0,13c0,7.168,5.832,13,13,13c7.168,0,13-5.832,13-13C26,5.832,20.168,0,13,0L13,0z"/>
	<path style="fill:#FF0000;" d="M18.701,8.447l-1.148-1.148L13,11.852L8.447,7.299L7.299,8.447L11.852,13l-4.553,4.553l1.148,1.148
		L13,14.148l4.553,4.553l1.148-1.148L14.148,13L18.701,8.447z"/>
</g>
</svg>
