<?xml version="1.0" encoding="iso-8859-1"?>
<!-- Generator: Adobe Illustrator 16.0.0, SVG Export Plug-In . SVG Version: 6.00 Build 0)  -->
<!DOCTYPE svg PUBLIC "-//W3C//DTD SVG 1.1//EN" "http://www.w3.org/Graphics/SVG/1.1/DTD/svg11.dtd">
<svg version="1.1" id="Layer_1" xmlns="http://www.w3.org/2000/svg" xmlns:xlink="http://www.w3.org/1999/xlink" x="0px" y="0px"
	 width="28.415px" height="28.463px" viewBox="0 0 28.415 28.463" style="enable-background:new 0 0 28.415 28.463;"
	 xml:space="preserve">
<g>
	<g>
		<g>
			<path style="fill:#019FDA;" d="M14.209,0c-1.268,0-2.3,1.031-2.3,2.3v15.992c-0.588,0.28-1.114,0.663-1.569,1.139
				c-0.159,0.168-0.152,0.433,0.015,0.592s0.432,0.153,0.592-0.014c0.438-0.461,0.957-0.816,1.541-1.058
				c0.157-0.064,0.259-0.218,0.259-0.388V2.3c0-0.808,0.656-1.463,1.463-1.463c0.808,0,1.463,0.656,1.463,1.463v7.894
				c0,0.231,0.188,0.419,0.419,0.419c0.23,0,0.418-0.188,0.418-0.419V2.3C16.51,1.031,15.479,0,14.209,0z"/>
		</g>
	</g>
	<g>
		<g>
			<path style="fill:#019FDA;" d="M16.51,18.292v-6.425c0-0.231-0.188-0.419-0.418-0.419c-0.231,0-0.419,0.188-0.419,0.419v6.696
				c0,0.17,0.103,0.323,0.259,0.388c1.692,0.699,2.787,2.335,2.787,4.167c0,2.485-2.022,4.508-4.509,4.508
				c-3.267,0-5.447-3.385-4.114-6.353c0.096-0.211,0.001-0.459-0.21-0.554s-0.458-0.001-0.553,0.211
				c-1.578,3.511,0.994,7.532,4.877,7.532c2.948,0,5.345-2.397,5.345-5.345C19.555,21.041,18.368,19.177,16.51,18.292z"/>
		</g>
	</g>
	<g>
		<g>
			<path style="fill:#019FDA;" d="M14.273,6.521c0.077,0,0.144,0.066,0.144,0.143v13.284c0,0.201,0.143,0.373,0.34,0.411
				c1.368,0.261,2.361,1.461,2.361,2.854c0,1.604-1.304,2.907-2.908,2.907c-1.944,0-3.346-1.886-2.782-3.747
				c0.066-0.221-0.059-0.454-0.279-0.521c-0.222-0.067-0.455,0.058-0.522,0.279c-0.105,0.35-0.159,0.715-0.159,1.082
				c0,2.064,1.679,3.743,3.743,3.743c2.065,0,3.744-1.679,3.744-3.743c0-1.676-1.116-3.136-2.699-3.595V6.664
				c0-0.54-0.441-0.979-0.981-0.979h-0.127c-0.54,0-0.979,0.438-0.979,0.979v12.955c-0.589,0.171-1.128,0.484-1.572,0.919
				c-0.165,0.162-0.169,0.427-0.007,0.592c0.161,0.165,0.426,0.168,0.592,0.007c0.411-0.402,0.924-0.671,1.484-0.777
				c0.197-0.038,0.34-0.21,0.34-0.411V6.664"/>
		</g>
	</g>
</g>
</svg>
